<?xml version="1.0" encoding="UTF-8"?>
<svg version="1.1" xmlns="http://www.w3.org/2000/svg" width="94" height="110">
<path d="M0 0 C31.02 0 62.04 0 94 0 C94 36.3 94 72.6 94 110 C62.98 110 31.96 110 0 110 C0 73.7 0 37.4 0 0 Z " fill="#FDFDFD" transform="translate(0,0)"/>
<path d="M0 0 C0.825 0.28875 1.65 0.5775 2.5 0.875 C3.49 0.215 4.48 -0.445 5.5 -1.125 C10.77661359 -1.83738425 15.22819871 -1.72743219 20.0625 0.5625 C22.5 2.875 22.5 2.875 23.5 5.5625 C23.995 6.7071875 23.995 6.7071875 24.5 7.875 C25.428125 8.019375 26.35625 8.16375 27.3125 8.3125 C30.5 8.875 30.5 8.875 33.25 11.625 C36.72072572 16.63827048 37.76652808 20.21296888 37.6875 26.3125 C37.68105469 27.40433594 37.67460938 28.49617188 37.66796875 29.62109375 C37.5 32.875 37.5 32.875 36.97265625 35.9453125 C36.50152932 38.86552074 36.5621063 41.37025554 36.75 44.3125 C36.83149919 49.33828328 35.80952395 51.46646809 32.59375 55.19140625 C31.21619455 57.31185768 31.31431675 58.50720242 31.5 61 C31.5 64.875 31.5 64.875 29.4375 67.875 C25.85342568 70.31522082 23.75018379 70.29168469 19.5 69.875 C19.12875 70.803125 19.12875 70.803125 18.75 71.75 C17.20246335 74.3808123 16.35320958 74.82505654 13.5 75.875 C10.1171875 76.03515625 10.1171875 76.03515625 6.375 75.9375 C1.7732154 75.6292614 1.7732154 75.6292614 -2.5 76.875 C-8.82714857 77.40226238 -11.28028418 76.68104278 -16.5 72.875 C-17.84090282 72.3598809 -19.19648776 71.88177314 -20.5625 71.4375 C-24.5615454 69.98679063 -27.0092984 68.45538355 -29.5 64.875 C-29.67178206 62.53289829 -29.56167206 60.29936184 -29.4140625 57.95703125 C-29.30152942 55.63370409 -29.30152942 55.63370409 -31.4375 53.5 C-32.118125 52.96375 -32.79875 52.4275 -33.5 51.875 C-35.06415341 47.18253977 -34.63141048 42.6563204 -34 37.8125 C-33.4808884 33.770351 -33.56136814 29.88351462 -33.6875 25.8125 C-33.73210258 19.91221602 -33.14788619 15.60604694 -29.5 10.875 C-27.09998683 8.62044218 -25.64223877 7.92241292 -22.5 6.875 C-20.91302369 5.27586018 -20.91302369 5.27586018 -19.4375 3.375 C-14.50191278 -2.7536681 -7.22021765 -2.32078424 0 0 Z " fill="#FAFAFA" transform="translate(45.5,21.125)"/>
<path d="M0 0 C4.13028952 1.58857289 6.75558957 3.13462649 9 7 C9 7.66 9 8.32 9 9 C10.051875 8.7834375 10.051875 8.7834375 11.125 8.5625 C15.10113822 9.16756451 16.30296732 11.14823559 18.765625 14.17578125 C21.65144339 18.44058247 21.45272584 23.05294122 21 28 C19.3873916 33.17732172 17.68127635 36.19123419 13 39 C11.59373303 39.39343575 10.17561325 39.74626379 8.75 40.0625 C7.5125 40.371875 6.275 40.68125 5 41 C4.67 41.99 4.34 42.98 4 44 C9.36095277 42.41078475 14.70843973 40.81027062 20 39 C20.4912999 46.24667349 20.4912999 46.24667349 18.125 49.875 C16.75 51.25 15.375 52.625 14 54 C14.33 54.66 14.66 55.32 15 56 C15.45595855 61.35751295 15.45595855 61.35751295 13.796875 63.6953125 C11.36012873 65.46460218 9.96174241 65.25042219 7 64.9375 C6.13375 64.86402344 5.2675 64.79054688 4.375 64.71484375 C1.35487935 63.80582717 0.52186095 62.72150378 -1 60 C-1.1875 56.75 -1.1875 56.75 -1 54 C-1.99 54 -2.98 54 -4 54 C-3.855625 55.258125 -3.71125 56.51625 -3.5625 57.8125 C-3.44068359 58.87404297 -3.44068359 58.87404297 -3.31640625 59.95703125 C-3.02829265 62.19396393 -3.02829265 62.19396393 -2 65 C0.50447516 66.21869929 0.50447516 66.21869929 3 67 C3 67.66 3 68.32 3 69 C-0.16942884 71.11295256 -0.99629953 71.25250929 -4.625 71.1875 C-5.42164063 71.18105469 -6.21828125 71.17460938 -7.0390625 71.16796875 C-9 71 -9 71 -10 70 C-10.10996096 67.93011987 -10.14912849 65.85645551 -10.16113281 63.78369141 C-10.16609772 63.13487503 -10.17106262 62.48605865 -10.17617798 61.81758118 C-10.19083276 59.66223099 -10.1976073 57.50695441 -10.203125 55.3515625 C-10.20887406 53.85802202 -10.21463182 52.36448158 -10.22039795 50.87094116 C-10.23091761 47.73524633 -10.23675383 44.5995772 -10.24023438 41.46386719 C-10.24571889 37.44300571 -10.26974159 33.42248292 -10.29820633 29.40172768 C-10.31681827 26.31510421 -10.32203754 23.22856251 -10.32357025 20.14188766 C-10.32660099 18.6594902 -10.33464369 17.17709432 -10.34775543 15.69475174 C-10.3647854 13.62127091 -10.36294373 11.54861979 -10.35644531 9.47509766 C-10.36009094 8.29452789 -10.36373657 7.11395813 -10.36749268 5.89761353 C-10 3 -10 3 -8.68475342 1.1187439 C-5.81165657 -0.78910774 -3.34514354 -0.34018409 0 0 Z " fill="#FBFBFB" transform="translate(59,23)"/>
<path d="M0 0 C0.825 0.28875 1.65 0.5775 2.5 0.875 C3.49 0.215 4.48 -0.445 5.5 -1.125 C10.77661359 -1.83738425 15.22819871 -1.72743219 20.0625 0.5625 C22.5 2.875 22.5 2.875 23.5 5.5625 C23.995 6.7071875 23.995 6.7071875 24.5 7.875 C25.428125 8.019375 26.35625 8.16375 27.3125 8.3125 C30.5 8.875 30.5 8.875 33.25 11.625 C36.72072572 16.63827048 37.76652808 20.21296888 37.6875 26.3125 C37.68105469 27.40433594 37.67460938 28.49617188 37.66796875 29.62109375 C37.5 32.875 37.5 32.875 36.97265625 35.9453125 C36.50152932 38.86552074 36.5621063 41.37025554 36.75 44.3125 C36.83149919 49.33828328 35.80952395 51.46646809 32.59375 55.19140625 C31.21619455 57.31185768 31.31431675 58.50720242 31.5 61 C31.5 64.875 31.5 64.875 29.4375 67.875 C25.85342568 70.31522082 23.75018379 70.29168469 19.5 69.875 C19.12875 70.803125 19.12875 70.803125 18.75 71.75 C17.20246335 74.3808123 16.35320958 74.82505654 13.5 75.875 C10.1171875 76.03515625 10.1171875 76.03515625 6.375 75.9375 C1.7732154 75.6292614 1.7732154 75.6292614 -2.5 76.875 C-8.82714857 77.40226238 -11.28028418 76.68104278 -16.5 72.875 C-17.84090282 72.3598809 -19.19648776 71.88177314 -20.5625 71.4375 C-24.5615454 69.98679063 -27.0092984 68.45538355 -29.5 64.875 C-29.67178206 62.53289829 -29.56167206 60.29936184 -29.4140625 57.95703125 C-29.30152942 55.63370409 -29.30152942 55.63370409 -31.4375 53.5 C-32.118125 52.96375 -32.79875 52.4275 -33.5 51.875 C-35.06415341 47.18253977 -34.63141048 42.6563204 -34 37.8125 C-33.4808884 33.770351 -33.56136814 29.88351462 -33.6875 25.8125 C-33.73210258 19.91221602 -33.14788619 15.60604694 -29.5 10.875 C-27.09998683 8.62044218 -25.64223877 7.92241292 -22.5 6.875 C-20.91302369 5.27586018 -20.91302369 5.27586018 -19.4375 3.375 C-14.50191278 -2.7536681 -7.22021765 -2.32078424 0 0 Z M-18.5 6.875 C-19.36119134 9.04846568 -19.36119134 9.04846568 -19.5 10.875 C-20.221875 10.75125 -20.94375 10.6275 -21.6875 10.5 C-24.81922586 10.62351954 -24.81922586 10.62351954 -27.25 13.6875 C-30.57198677 18.39364792 -30.62994957 22.00569284 -30.5625 27.5625 C-30.55798828 28.26439453 -30.55347656 28.96628906 -30.54882812 29.68945312 C-30.53706927 31.41800538 -30.51913454 33.14651365 -30.5 34.875 C-29.901875 34.565625 -29.30375 34.25625 -28.6875 33.9375 C-23.95628805 31.63948277 -19.67640258 31.33306616 -14.5 31.875 C-11.9375 33.25 -11.9375 33.25 -10.5 34.875 C-10.5 35.535 -10.5 36.195 -10.5 36.875 C-12.5 35.875 -14.5 34.875 -16.5 33.875 C-21.7906976 33.27378436 -24.34234471 34.66226637 -28.5 37.875 C-30.99040942 40.36540942 -30.82391014 41.30654357 -30.875 44.75 C-30.80865531 48.28157865 -30.73660176 49.53233538 -28.6875 52.5 C-26.50730728 54.14108577 -26.50730728 54.14108577 -23.5 53.875 C-23.83 54.390625 -24.16 54.90625 -24.5 55.4375 C-25.8578232 58.74719404 -25.82214498 61.33140517 -25.5 64.875 C-24.64780077 66.97742444 -24.64780077 66.97742444 -22.5 67.875 C-19.78117977 68.11095284 -17.24042978 68.00977523 -14.5 67.875 C-14.231875 68.49375 -13.96375 69.1125 -13.6875 69.75 C-12.54443152 72.1745233 -12.54443152 72.1745233 -9.5 73.875 C-6.72902515 73.891173 -4.24849127 73.36263555 -1.5 72.875 C0.33273583 71.04226417 -0.34353919 68.11877404 -0.32299805 65.65869141 C-0.31642685 65.00987503 -0.30985565 64.36105865 -0.30308533 63.69258118 C-0.28331258 61.53724057 -0.27168133 59.38196974 -0.26171875 57.2265625 C-0.25764322 56.49204235 -0.2535677 55.7575222 -0.24936867 55.00074387 C-0.2284914 51.11345447 -0.21419666 47.22620056 -0.20483398 43.33886719 C-0.19376311 39.3179047 -0.15936095 35.29749467 -0.11966228 31.27672768 C-0.09355118 28.19010368 -0.08514713 25.10361241 -0.08155251 22.01688766 C-0.07667255 20.53447105 -0.06501857 19.0520609 -0.04651451 17.56975174 C-0.02223678 15.49608513 -0.0230659 13.42386203 -0.0300293 11.35009766 C-0.02416306 10.16952789 -0.01829681 8.98895813 -0.01225281 7.77261353 C-0.22582181 4.78173737 -0.22582181 4.78173737 -2.39289856 2.99960327 C-8.65399752 -0.34207371 -14.40659254 1.24656475 -18.5 6.875 Z M4.80352783 2.9859314 C2.87949366 5.77423592 3.13316278 7.98487141 3.14355469 11.35009766 C3.14151031 12.00241867 3.13946594 12.65473969 3.13735962 13.326828 C3.13435336 15.48119206 3.15281985 17.63478954 3.171875 19.7890625 C3.17493246 21.2845338 3.17680868 22.78000794 3.17755127 24.27548218 C3.182153 27.40772416 3.19657598 30.53970885 3.21875 33.671875 C3.2470812 37.69500715 3.25796644 41.71793701 3.2624321 45.74115944 C3.2665798 48.82770832 3.276391 51.91421597 3.28830719 55.00074387 C3.29401964 56.48477217 3.2987751 57.96880446 3.30257416 59.4528389 C3.30941633 61.52152808 3.32303746 63.59005397 3.33886719 65.65869141 C3.34569519 66.83766998 3.35252319 68.01664856 3.35955811 69.23135376 C3.20050787 71.79837434 3.20050787 71.79837434 4.5 72.875 C6.53381744 73.07465405 6.53381744 73.07465405 8.875 73.0625 C9.66648437 73.07667969 10.45796875 73.09085937 11.2734375 73.10546875 C13.78731333 73.02007509 13.78731333 73.02007509 16.5 70.875 C16.5 70.215 16.5 69.555 16.5 68.875 C15.70207031 68.66101563 14.90414062 68.44703125 14.08203125 68.2265625 C11.5 66.875 11.5 66.875 10.57421875 64.2734375 C10.44660156 63.27570313 10.31898437 62.27796875 10.1875 61.25 C10.04699219 60.24710938 9.90648437 59.24421875 9.76171875 58.2109375 C9.67535156 57.44007812 9.58898438 56.66921875 9.5 55.875 C10.49 55.875 11.48 55.875 12.5 55.875 C12.438125 56.7825 12.37625 57.69 12.3125 58.625 C12.52391553 62.28953592 12.98994441 63.28871713 15.5 65.875 C17.88354392 66.68145291 17.88354392 66.68145291 20.5 66.8125 C21.799375 66.94978516 21.799375 66.94978516 23.125 67.08984375 C25.54769197 67.07559874 25.54769197 67.07559874 27.296875 65.56640625 C29.11315542 63.01299904 28.75424898 60.92598777 28.5 57.875 C28.17 56.885 27.84 55.895 27.5 54.875 C28.7065625 53.946875 28.7065625 53.946875 29.9375 53 C32.53874519 51.13335959 32.53874519 51.13335959 33.5 48.875 C33.5689472 47.50157169 33.58467708 46.12497898 33.5625 44.75 C33.541875 43.47125 33.52125 42.1925 33.5 40.875 C32.71625 41.143125 31.9325 41.41125 31.125 41.6875 C26.60760831 43.16733521 22.05729662 44.52402274 17.5 45.875 C17.83 44.885 18.16 43.895 18.5 42.875 C20.609375 42.13671875 20.609375 42.13671875 23.25 41.5625 C28.56834343 40.11688448 30.56618773 38.51231618 33.5 33.875 C35.2185193 28.43117434 35.26067487 22.89078841 33.25 17.5625 C31.49845825 14.87263231 30.0532851 12.82751213 27.5 10.875 C24.83165034 10.54001699 24.83165034 10.54001699 22.5 10.875 C22.2525 10.111875 22.005 9.34875 21.75 8.5625 C20.36694005 5.58892111 19.26995517 4.55376071 16.5 2.875 C12.65795718 1.59431906 8.38157613 0.64285365 4.80352783 2.9859314 Z " fill="#131313" transform="translate(45.5,21.125)"/>
<path d="M0 0 C4.8642194 0.41693309 6.89876673 2.32748692 10 6 C13.11913357 11.09458484 13.11913357 11.09458484 12.6875 14.375 C12.460625 14.91125 12.23375 15.4475 12 16 C11.34 16 10.68 16 10 16 C9.69707031 15.31292969 9.39414062 14.62585938 9.08203125 13.91796875 C5.97905629 7.17387559 5.97905629 7.17387559 0 3 C0 2.01 0 1.02 0 0 Z " fill="#181818" transform="translate(23,67)"/>
<path d="M0 0 C0.66 0 1.32 0 2 0 C3.34331654 1.99330842 4.67594012 3.99384866 6 6 C8.98646769 7.99097846 11.59687262 8.94124926 15 10 C15 10.99 15 11.98 15 13 C8.86317862 12.10421126 4.94959329 11.14643974 1 6 C-0.3125 3.1875 -0.3125 3.1875 -1 1 C-0.67 0.67 -0.34 0.34 0 0 Z " fill="#191919" transform="translate(59,38)"/>
<path d="M0 0 C0.99 0.33 1.98 0.66 3 1 C1.74334744 4.87467873 0.68812681 7.10609704 -3 9 C-6.75 9.1875 -6.75 9.1875 -10 9 C-9.67 8.01 -9.34 7.02 -9 6 C-7.865625 5.690625 -6.73125 5.38125 -5.5625 5.0625 C-1.93740933 4.39099225 -1.93740933 4.39099225 -0.5625 1.875 C-0.376875 1.25625 -0.19125 0.6375 0 0 Z " fill="#171717" transform="translate(36,35)"/>
</svg>
